<svg width="1920" height="1080" viewBox="0 0 1920 1080" fill="none" xmlns="http://www.w3.org/2000/svg">
<g clip-path="url(#clip0_254_2)">
<path d="M1920 1080H0V6.10352e-05H1920V1080ZM847 738.224C847 742.988 848.587 746.832 851.761 749.749C854.892 752.584 858.989 754 864.05 754C869.111 754 873.207 752.584 876.338 749.749C879.512 746.832 881.099 742.988 881.099 738.224V708.084H873.7V737.772C873.7 740.56 872.863 742.774 871.19 744.404C869.561 745.993 867.18 746.787 864.05 746.787C860.919 746.787 858.516 745.993 856.844 744.404C855.214 742.774 854.398 740.56 854.398 737.772V708.084H847V738.224ZM963.039 707.31C959.011 707.31 955.604 708.489 952.819 710.847C949.991 713.163 948.577 716.313 948.577 720.301C948.577 724.289 950.034 727.312 952.948 729.368C955.348 730.957 958.497 732.326 962.396 733.484C966.21 734.643 968.868 735.716 970.367 736.701C971.867 737.684 972.617 739.08 972.617 740.88C972.617 742.68 971.91 744.118 970.496 745.189C969.082 746.262 967.003 746.798 964.261 746.798C958.605 746.798 954.876 744.267 953.076 739.209L946.713 742.939C947.913 746.41 950.012 749.132 953.012 751.106C956.054 753.035 959.74 754 964.068 754C968.868 754 972.703 752.821 975.574 750.463C978.531 748.061 980.009 744.824 980.01 740.751C980.267 737.194 978.723 734.107 975.381 731.491C974.566 730.849 973.474 730.248 972.103 729.69C970.432 729.004 969.318 728.576 968.761 728.403C968.418 728.277 967.175 727.846 965.032 727.118C961.561 726.045 959.183 725.039 957.897 724.095C956.612 723.109 955.969 721.779 955.969 720.107C955.969 718.392 956.612 717.043 957.897 716.058C959.183 715.029 960.897 714.512 963.039 714.512C967.453 714.512 970.603 716.615 972.488 720.816L978.724 717.213C977.267 714.084 975.166 711.662 972.424 709.946C969.724 708.19 966.596 707.31 963.039 707.31ZM1007.55 707.31C1001.02 707.31 995.484 709.583 990.933 714.128C986.424 718.629 984.17 724.139 984.17 730.655C984.17 737.171 986.424 742.702 990.933 747.247C995.484 751.748 1001.02 754 1007.55 754C1014.07 754 1019.59 751.748 1024.1 747.247C1028.65 742.702 1030.93 737.171 1030.93 730.655C1030.93 724.139 1028.65 718.629 1024.1 714.128C1019.59 709.583 1014.07 707.31 1007.55 707.31ZM889.882 753.226H897.267V722.594L918.459 753.226H924.239V708.084H916.854V738.716L895.661 708.084H889.882V753.226ZM933.28 753.226H940.771V708.084H933.28V753.226ZM1037.64 753.226H1045.03V722.594L1066.22 753.226H1072V708.084H1064.62V738.716L1043.42 708.084H1037.64V753.226ZM1007.55 714.512C1012.06 714.512 1015.83 716.058 1018.88 719.143C1021.97 722.187 1023.52 726.025 1023.52 730.655C1023.52 735.285 1021.97 739.145 1018.88 742.232C1015.83 745.273 1012.06 746.798 1007.55 746.798C1003.08 746.798 999.283 745.274 996.148 742.232C993.1 739.101 991.576 735.242 991.576 730.655C991.576 726.025 993.1 722.186 996.148 719.143C999.24 716.058 1003.04 714.512 1007.55 714.512ZM937.798 683.836H942.912V699.056H945.883V683.836H950.973V680.999H937.798V683.836ZM953.169 699.056H956.14V691.239H963.89V699.056H966.86V680.999H963.89V688.402H956.14V680.999H953.169V699.056ZM970.479 699.056H981.328V696.218H973.414V691.343H980.562V688.531H973.414V683.836H981.201V680.999H970.479V699.056ZM1002.3 373.004C998.294 373.13 994.053 376.506 993.588 380.578C993.17 385.161 993.325 390.03 993.325 394.679L993.33 419.919C993.327 444.203 992.892 469.918 993.377 494.079C993.134 497.45 993.431 502.222 993.294 505.82C993.005 515.605 991.289 527.085 984.079 534.386C972.061 546.557 947.459 546.317 935.438 534.368C925.205 524.197 926.627 505.376 926.559 492.022C926.851 467.351 926.601 442.199 926.597 417.495L926.591 392.899C926.589 389.146 926.695 385.305 926.54 381.565C926.458 379.585 925.677 377.775 924.456 376.341C924.411 376.288 924.365 376.235 924.319 376.184C923.994 375.819 923.639 375.48 923.261 375.17C923.153 375.082 923.043 374.996 922.931 374.912C922.875 374.87 922.818 374.829 922.761 374.788C922.647 374.707 922.531 374.629 922.413 374.553C921.884 374.211 921.32 373.92 920.729 373.69C920.533 373.614 920.333 373.544 920.131 373.482C919.996 373.44 919.859 373.401 919.723 373.365C919.586 373.33 919.447 373.297 919.309 373.268C919.17 373.238 919.03 373.212 918.89 373.19C918.749 373.167 918.607 373.147 918.465 373.131C918.252 373.107 918.037 373.091 917.821 373.083C917.749 373.08 917.677 373.079 917.604 373.078C917.528 373.078 917.451 373.078 917.374 373.079C917.066 373.084 916.759 373.104 916.456 373.139C916.304 373.156 916.153 373.178 916.003 373.203C915.102 373.353 914.229 373.634 913.414 374.036C913.278 374.103 913.144 374.174 913.012 374.247C912.68 374.431 912.359 374.636 912.051 374.86C911.928 374.95 911.806 375.043 911.688 375.139C911.568 375.235 911.451 375.334 911.337 375.437C911.222 375.539 911.11 375.644 911 375.752C910.156 376.59 909.317 377.801 908.857 379.025C908.838 379.078 908.818 379.132 908.8 379.185C908.652 379.611 908.551 380.037 908.514 380.448C908.098 385.083 908.25 390.163 908.248 394.82L908.25 479.237C908.249 489.312 908.233 499.396 908.288 509.471C908.341 519.125 910.274 530.202 915.584 538.427C919.743 545.305 925.056 550.852 931.128 556.023C937.545 561.49 942.657 567.679 945.935 575.545C948.156 581.001 949.545 586.761 950.057 592.63C950.605 598.377 950.518 604.683 950.522 610.469L950.545 632.591C950.549 637.066 949.778 645.917 951.959 649.525C953.297 651.759 955.484 653.353 958.02 653.949C960.282 654.473 962.66 654.063 964.618 652.817C968.085 650.602 969.125 647.594 969.115 643.665C969.11 640.353 969.125 637.025 969.122 633.716L969.115 611.383C969.113 602.83 968.865 594.441 970.635 586.025C972.495 576.98 977.411 566.53 984.358 560.231C992.435 552.904 1000.78 546.351 1005.62 536.147C1006.89 533.467 1008.4 530.509 1009.01 527.508C1013.05 517.91 1011.92 490.089 1011.92 478.617V395.648C1011.92 392.355 1011.93 389.07 1011.92 385.77C1011.91 382.107 1012.17 378.688 1009.27 375.914C1007.54 374.252 1004.95 372.986 1002.49 373L1002.3 373.004ZM890.823 373.004C885.873 374.057 882.896 377.15 882.812 382.375C882.694 389.619 882.781 396.877 882.777 404.125L882.763 496.975C882.761 509.24 881.971 524.199 884.561 535.928C888.494 553.746 901.837 568.693 917.205 578.089C921.898 580.943 926.838 583.366 931.966 585.33C934.741 586.383 937.378 587.361 940.255 588.135C936.951 573.844 933.401 568.866 922.384 560.046C913.1 552.611 905.203 539.863 902.752 528.364C900.987 520.465 901.165 512.352 901.165 504.317L901.191 391.418C901.192 387.845 901.462 383.447 900.802 380.01C899.911 375.372 895.192 372.882 890.823 373.004ZM1027.05 373.007C1017.13 375.053 1018.74 383.725 1018.74 391.584L1018.76 502.482C1018.75 510.001 1018.74 516.949 1017.65 524.283C1015.7 537.495 1008.38 551.328 997.868 559.774C986.803 568.662 983.088 573.518 979.778 587.877C982.087 587.142 984.159 586.458 986.439 585.609C1013.75 574.364 1034.58 553.33 1036.79 522.307C1037.31 514.934 1037.07 507.4 1037.07 500.001L1037.08 409.365C1037.09 400.352 1037.12 391.339 1037.07 382.326C1037.04 376.455 1032.82 372.814 1027.05 373.007Z" fill="#F9FAFB"/>
</g>
<defs>
<clipPath id="clip0_254_2">
<rect width="1920" height="1080" fill="white"/>
</clipPath>
</defs>
</svg>
