<svg width="871" height="1477" viewBox="0 0 871 1477" fill="none" xmlns="http://www.w3.org/2000/svg">
<path d="M28.6416 1414.09C28.6416 1424.9 31.796 1433.48 38.1055 1439.8C44.5809 1445.96 53.8793 1449.04 66 1449.04C78.1207 1449.04 87.3361 1445.96 93.6455 1439.8C100.121 1433.48 103.358 1424.9 103.358 1414.09V1299H132V1415.84C132 1434.31 125.857 1449.21 113.569 1460.52C101.449 1471.51 85.5923 1477 66 1477C46.4076 1477 30.5513 1471.51 18.4307 1460.52C6.14383 1449.21 9.96228e-07 1434.31 0 1415.84V1299H28.6416V1414.09ZM449.202 1296C462.97 1296 475.08 1299.41 485.531 1306.22C496.148 1312.87 504.277 1322.26 509.917 1334.39L485.78 1348.36C478.482 1332.07 466.289 1323.92 449.202 1323.92C440.908 1323.92 434.272 1325.92 429.296 1329.91C424.32 1333.73 421.831 1338.96 421.831 1345.61C421.831 1352.09 424.32 1357.25 429.296 1361.07C434.272 1364.73 443.479 1368.63 456.916 1372.79C465.21 1375.61 470.022 1377.28 471.349 1377.77C473.506 1378.44 477.818 1380.1 484.287 1382.76C489.595 1384.92 493.825 1387.25 496.978 1389.74C509.917 1399.88 515.889 1411.85 514.894 1425.64C514.893 1441.43 509.17 1453.98 497.725 1463.29C486.61 1472.43 471.763 1477 453.184 1477C436.43 1477 422.162 1473.26 410.385 1465.78C398.773 1458.13 390.645 1447.58 386 1434.12L410.634 1419.66C417.601 1439.27 432.034 1449.08 453.931 1449.08C464.547 1449.08 472.592 1447 478.066 1442.84C483.541 1438.69 486.278 1433.12 486.278 1426.14C486.278 1419.16 483.375 1413.75 477.569 1409.94C471.764 1406.12 461.477 1401.96 446.714 1397.47C431.618 1392.98 419.426 1387.67 410.137 1381.51C398.857 1373.54 393.216 1361.82 393.216 1346.36C393.216 1330.9 398.69 1318.69 409.639 1309.71C420.421 1300.57 433.609 1296 449.202 1296ZM621.5 1296C646.763 1296 668.121 1304.81 685.573 1322.43C703.191 1339.88 712 1361.24 712 1386.5C712 1411.76 703.191 1433.2 685.573 1450.82C668.121 1468.27 646.763 1477 621.5 1477C596.237 1477 574.796 1468.27 557.178 1450.82C539.726 1433.2 531 1411.76 531 1386.5C531 1361.24 539.726 1339.88 557.178 1322.43C574.796 1304.81 596.237 1296 621.5 1296ZM270.411 1417.75V1299H299V1474H276.626L194.589 1355.25V1474H166V1299H188.374L270.411 1417.75ZM363 1474H334V1299H363V1474ZM842.411 1417.75V1299H871V1474H848.626L766.589 1355.25V1474H738V1299H760.374L842.411 1417.75ZM621.5 1323.92C604.048 1323.92 589.339 1329.91 577.372 1341.87C565.572 1353.67 559.671 1368.55 559.671 1386.5C559.671 1404.28 565.572 1419.24 577.372 1431.38C589.506 1443.17 604.215 1449.08 621.5 1449.08C638.952 1449.08 653.578 1443.17 665.379 1431.38C677.346 1419.41 683.329 1404.45 683.329 1386.5C683.329 1368.55 677.346 1353.67 665.379 1341.87C653.578 1329.91 638.952 1323.92 621.5 1323.92ZM402.488 1205H382.788V1264H371.288V1205H351.488V1194H402.488V1205ZM422.492 1222.7H452.492V1194H463.992V1264H452.492V1233.7H422.492V1264H410.992V1194H422.492V1222.7ZM519.506 1205H489.364V1223.2H517.035V1234.1H489.364V1253H520V1264H478V1194H519.506V1205ZM601.932 0.000610352C611.448 -0.0522591 621.453 4.85638 628.164 11.2985C639.378 22.0517 638.371 35.3038 638.421 49.5045C638.471 62.2989 638.439 75.0332 638.439 87.7965V409.442C638.439 453.912 642.804 561.762 627.176 598.971C624.809 610.607 618.967 622.073 614.044 632.459C595.3 672.018 562.995 697.421 531.729 725.825C504.836 750.247 485.802 790.757 478.603 825.825C471.752 858.451 472.71 890.968 472.72 924.124L472.75 1010.7C472.76 1023.53 472.7 1036.43 472.72 1049.27C472.76 1064.5 468.735 1076.16 455.314 1084.75C447.735 1089.58 438.527 1091.17 429.77 1089.14C419.953 1086.83 411.487 1080.65 406.309 1071.99C397.864 1058 400.847 1023.69 400.833 1006.34L400.746 920.582C400.727 898.152 401.065 873.708 398.943 851.427C396.964 828.676 391.587 806.344 382.988 785.194C370.302 754.699 350.51 730.707 325.67 709.516C302.163 689.466 281.596 667.966 265.497 641.302C244.939 609.417 237.458 566.474 237.254 529.047C237.04 489.992 237.102 450.899 237.106 411.843L237.099 84.5895C237.106 66.5347 236.519 46.8415 238.128 28.8737C238.271 27.2809 238.659 25.6289 239.233 23.9772C239.304 23.7704 239.38 23.5637 239.457 23.3571C241.237 18.6101 244.485 13.919 247.751 10.6696C248.176 10.2501 248.611 9.84186 249.055 9.44592C249.498 9.04957 249.952 8.66502 250.413 8.2926C250.873 7.9204 251.343 7.5604 251.82 7.21252C253.014 6.3425 254.256 5.54813 255.539 4.83459C256.052 4.54925 256.572 4.27682 257.098 4.01721C260.254 2.4592 263.631 1.36838 267.119 0.78772C267.701 0.690936 268.286 0.607891 268.873 0.539673C270.047 0.403316 271.233 0.325097 272.424 0.305298C272.721 0.30035 273.021 0.298922 273.319 0.301392C273.599 0.305067 273.879 0.312299 274.157 0.322876C274.994 0.354642 275.826 0.416869 276.65 0.509399C277.201 0.571054 277.748 0.646182 278.292 0.734009C278.836 0.821908 279.378 0.922296 279.916 1.03577C280.453 1.14917 280.987 1.27639 281.517 1.41467C282.047 1.55305 282.574 1.70319 283.096 1.86584C283.878 2.10979 284.652 2.38061 285.414 2.67737C287.699 3.56767 289.885 4.69159 291.933 6.01819C292.388 6.31289 292.837 6.61681 293.278 6.93127C293.499 7.08859 293.718 7.2496 293.935 7.41174C294.369 7.73607 294.796 8.06956 295.215 8.41272C296.681 9.61323 298.051 10.9272 299.31 12.3405C299.489 12.5424 299.666 12.7468 299.842 12.9528C304.57 18.514 307.59 25.5276 307.907 33.2028C308.507 47.7048 308.099 62.5911 308.105 77.1442L308.127 172.492C308.144 268.259 309.115 365.764 307.982 461.405C308.247 513.177 302.739 586.135 342.351 625.565C388.887 671.888 484.125 672.819 530.65 625.635C558.56 597.331 565.202 552.829 566.32 514.896C566.85 500.948 565.701 482.447 566.64 469.381C564.762 375.716 566.449 276.03 566.459 181.889L566.44 84.0416C566.44 66.0188 565.84 47.1443 567.458 29.3776C569.258 13.5895 585.677 0.503421 601.191 0.0142822L601.932 0.000610352ZM169.646 0.0162354C186.56 -0.457671 204.824 9.19786 208.271 27.1754C210.825 40.5013 209.784 57.5469 209.781 71.4L209.678 509.071C209.677 540.219 208.988 571.671 215.821 602.293C225.309 646.869 255.879 696.288 291.819 725.109C334.47 759.302 348.211 778.599 361 834C349.865 830.999 339.656 827.207 328.913 823.126C309.064 815.513 289.94 806.119 271.773 795.055C212.28 758.632 160.628 700.69 145.402 631.614C135.379 586.147 138.438 528.155 138.443 480.607L138.499 120.662C138.513 92.5642 138.176 64.4266 138.63 36.3453C138.957 16.0891 150.48 4.09874 169.646 0.0162354ZM696.991 0.0279541C719.342 -0.720034 735.662 13.3913 735.792 36.1539C735.992 71.094 735.852 106.035 735.832 140.976L735.771 492.339C735.781 521.022 736.73 550.226 734.692 578.809C726.154 699.074 645.488 780.613 539.785 824.209C530.957 827.499 522.937 830.15 514 833C526.813 777.334 541.195 758.512 584.029 724.058C624.726 691.314 653.038 637.686 660.618 586.47C664.833 558.038 664.883 531.103 664.913 501.953L664.813 72.0455C664.813 41.5791 658.592 7.95998 696.991 0.0279541Z" fill="#F9FAFB"/>
</svg>
